#!OML:ASF E:\motion texture\Top Level 1\Subject 1\Session 1\male.ASF
:FULLY-SPECIFIED
:DEGREES
454
root -24.7351 17.8762 2.97915 140.41 -75.5813 -132.069
lowerback -2.95615 5.42289 8.89243
upperback -1.77215 6.87607 2.63828
thorax 0.527681 3.34835 -1.92865
lowerneck -17.4056 0.938794 -2.71511
upperneck 17.9962 1.25429 3.26032
head 8.43007 0.721792 1.69535
rclavicle -5.82113e-014 1.98785e-016
rhumerus -20.1086 8.96649 -79.6568
rradius 52.7847
rwrist 12.7017
rhand -15.2252 -28.2012
rfingers 7.12502
rthumb 10.9476 -57.8958
lclavicle -5.82113e-014 1.98785e-016
lhumerus -45.8012 25.5549 67.914
lradius 29.9757
lwrist -26.9299
lhand -12.8692 26.8563
lfingers 7.12502
lthumb 13.2193 56.4172
rfemur -0.385071 2.19813 34.9193
rtibia 20.2221
rfoot -12.7797 -5.60108
rtoes 2.36388
lfemur -31.6411 0.239845 -4.34237
ltibia 20.7624
lfoot -4.64491 10.5905
ltoes -11.8675
455
root -24.8983 17.8654 2.97246 140.73 -75.594 -132.347
lowerback -3.01405 5.50017 8.8488
upperback -1.78187 6.97598 2.57825
thorax 0.562092 3.4001 -1.95471
lowerneck -17.4032 0.971695 -2.72471
upperneck 17.9893 1.30332 3.25717
head 8.42555 0.744088 1.70166
rclavicle -1.33714e-014 1.35422e-014
rhumerus -20.0583 9.32462 -79.7625
rradius 53.7672
rwrist 12.9057
rhand -15.4578 -28.081
rfingers 7.12502
rthumb 10.7232 -57.7873
lclavicle -1.33714e-014 1.35422e-014
lhumerus -46.1537 25.3428 67.7972
lradius 30.5766
lwrist -26.2265
lhand -12.9927 26.9756
lfingers 7.12502
lthumb 13.1002 56.5441
rfemur -0.360096 2.09706 34.7218
rtibia 21.0026
rfoot -12.6522 -5.49036
rtoes 1.4303
lfemur -31.5669 0.0615452 -4.48726
ltibia 20.1436
lfoot -4.41623 10.753
ltoes -11.42
456
root -25.0626 17.8551 2.96616 141.072 -75.6198 -132.663
lowerback -3.0675 5.5732 8.78719
upperback -1.7888 7.07148 2.51645
thorax 0.594672 3.44989 -1.97337
lowerneck -17.3958 1.00576 -2.73356
upperneck 17.9839 1.35268 3.25776
head 8.42066 0.766921 1.7091
rclavicle 3.60732e-014 -1.69464e-014
rhumerus -20.0082 9.68854 -79.8786
rradius 54.7444
rwrist 13.1399
rhand -15.6925 -27.9522
rfingers 7.12502
rthumb 10.4968 -57.6701
lclavicle 3.60732e-014 -1.69464e-014
lhumerus -46.453 25.0991 67.7461
lradius 31.1907
lwrist -25.524
lhand -13.1111 27.0833
lfingers 7.12502
lthumb 12.9861 56.6591
rfemur -0.372999 1.98944 34.4978
rtibia 21.8503
rfoot -12.4498 -5.37964
rtoes 0.547984
lfemur -31.4706 -0.102469 -4.66685
ltibia 19.6242
lfoot -4.18891 10.881
ltoes -10.9473
457
root -25.2278 17.8456 2.96025 141.435 -75.6627 -133.012
lowerback -3.11557 5.64094 8.70687
upperback -1.79237 7.16135 2.45164
thorax 0.625362 3.49714 -1.98569
lowerneck -17.3869 1.04024 -2.74071
upperneck 17.9813 1.40133 3.26151
head 8.41639 0.789818 1.71724
rclavicle 1.32037e-014 2.50841e-014
rhumerus -19.9543 10.0586 -80.0051
rradius 55.7126
rwrist 13.4084
rhand -15.932 -27.8121
rfingers 7.12502
rthumb 10.2658 -57.5416
lclavicle 1.32037e-014 2.50841e-014
lhumerus -46.6961 24.8269 67.7591
lradius 31.8154
lwrist -24.8273
lhand -13.2284 27.1794
lfingers 7.12502
lthumb 12.873 56.7624
rfemur -0.425355 1.87194 34.2453
rtibia 22.7666
rfoot -12.1765 -5.27892
rtoes -0.289572
lfemur -31.3532 -0.251759 -4.88575
ltibia 19.2033
lfoot -3.96465 10.9704
ltoes -10.4498
458
root -25.3941 17.8368 2.95473 141.824 -75.7224 -133.402
lowerback -3.15856 5.70384 8.60751
upperback -1.7922 7.24618 2.38351
thorax 0.654736 3.54218 -1.99176
lowerneck -17.3736 1.0753 -2.74575
upperneck 17.9794 1.44945 3.26785
head 8.41165 0.81283 1.7258
rclavicle -6.67982e-014 -1.9866e-014
rhumerus -19.897 10.4354 -80.1417
rradius 56.6711
rwrist 13.7109
rhand -16.1749 -27.6622
rfingers 7.12502
rthumb 10.0314 -57.4032
lclavicle -6.67982e-014 -1.9866e-014
lhumerus -46.8841 24.5239 67.8363
lradius 32.4526
lwrist -24.138
lhand -13.347 27.2604
lfingers 7.12502
lthumb 12.7587 56.8506
rfemur -0.516933 1.74379 33.9628
rtibia 23.7519
rfoot -11.8385 -5.19044
rtoes -1.08374
lfemur -31.2115 -0.385627 -5.14558
ltibia 18.8764
lfoot -3.74767 11.0214
ltoes -9.91985
459
root -25.5613 17.8288 2.94956 142.226 -75.7991 -133.821
lowerback -3.19628 5.76108 8.49199
upperback -1.78795 7.32474 2.31272
thorax 0.683106 3.58436 -1.99255
lowerneck -17.3581 1.11039 -2.75103
upperneck 17.9782 1.49649 3.2792
head 8.40668 0.835818 1.73593
rclavicle 4.73519e-014 4.83916e-015
rhumerus -19.8332 10.8199 -80.2875
rradius 57.6192
rwrist 14.047
rhand -16.4222 -27.5063
rfingers 7.12502
rthumb 9.79281 -57.2586
lclavicle 4.73519e-014 4.83916e-015
lhumerus -47.0153 24.1991 67.9716
lradius 33.0971
lwrist -23.4685
lhand -13.4657 27.3287
lfingers 7.12502
lthumb 12.6443 56.9259
rfemur -0.65071 1.60317 33.6542
rtibia 24.8066
rfoot -11.4362 -5.11885
rtoes -1.82472
lfemur -31.0476 -0.502424 -5.44382
ltibia 18.6417
lfoot -3.54262 11.0314
ltoes -9.3671
460
root -25.7291 17.8215 2.94465 142.638 -75.8937 -134.264
lowerback -3.22743 5.81212 8.36008
upperback -1.77992 7.39649 2.23941
thorax 0.70931 3.62336 -1.98802
lowerneck -17.3394 1.14562 -2.75546
upperneck 17.9764 1.54269 3.29379
head 8.40094 0.85878 1.74684
rclavicle -8.17743e-014 -2.56929e-014
rhumerus -19.7614 11.213 -80.4422
rradius 58.5551
rwrist 14.4159
rhand -16.678 -27.3425
rfingers 7.12502
rthumb 9.54602 -57.1062
lclavicle -8.17743e-014 -2.56929e-014
lhumerus -47.0895 23.854 68.1627
lradius 33.7482
lwrist -22.8238
lhand -13.5813 27.3886
lfingers 7.12502
lthumb 12.5328 56.9927
rfemur -0.829397 1.45126 33.3216
rtibia 25.9297
rfoot -10.9657 -5.07361
rtoes -2.49419
lfemur -30.8625 -0.601754 -5.7792
ltibia 18.4953
lfoot -3.35181 10.9994
ltoes -8.80246
461
root -25.8976 17.8151 2.94003 143.051 -76.006 -134.722
lowerback -3.25224 5.85681 8.21491
upperback -1.7684 7.46107 2.1637
thorax 0.733469 3.65896 -1.97976
lowerneck -17.3193 1.18066 -2.75984
upperneck 17.9749 1.58756 3.31296
head 8.39506 0.881585 1.75911
rclavicle -4.0278e-014 -2.24378e-014
rhumerus -19.6795 11.6148 -80.6048
rradius 59.4773
rwrist 14.8167
rhand -16.9387 -27.1759
rfingers 7.12502
rthumb 9.29448 -56.951
lclavicle -4.0278e-014 -2.24378e-014
lhumerus -47.1058 23.4915 68.4065
lradius 34.4026
lwrist -22.2084
lhand -13.6959 27.4416
lfingers 7.12502
lthumb 12.4223 57.0525
rfemur -1.05467 1.28636 32.9679
rtibia 27.1189
rfoot -10.4348 -5.0611
rtoes -3.10425
lfemur -30.6566 -0.68451 -6.14896
ltibia 18.4326
lfoot -3.17899 10.9259
ltoes -8.22385
462
root -26.0666 17.8096 2.93561 143.462 -76.1356 -135.192
lowerback -3.27072 5.89516 8.05725
upperback -1.75378 7.51842 2.08618
thorax 0.755173 3.69104 -1.96762
lowerneck -17.2951 1.21526 -2.76298
upperneck 17.9719 1.63083 3.33474
head 8.38795 0.903971 1.77176
rclavicle -2.9782e-014 -2.93207e-014
rhumerus -19.5866 12.0283 -80.7744
rradius 60.384
rwrist 15.2465
rhand -17.2124 -27.0072
rfingers 7.12502
rthumb 9.03039 -56.7939
lclavicle -2.9782e-014 -2.93207e-014
lhumerus -47.0662 23.111 68.7001
lradius 35.0609
lwrist -21.6262
lhand -13.8083 27.4828
lfingers 7.12502
lthumb 12.314 57.1002
rfemur -1.32651 1.10919 32.5959
rtibia 28.3691
rfoot -9.83886 -5.08538
rtoes -3.63311
lfemur -30.429 -0.751225 -6.54987
ltibia 18.4474
lfoot -3.02646 10.8119
ltoes -7.63774
463
root -26.236 17.805 2.93133 143.865 -76.2828 -135.667
lowerback -3.28136 5.92681 7.88863
upperback -1.73675 7.56817 2.00693
thorax 0.773006 3.71936 -1.95259
lowerneck -17.2676 1.24931 -2.76511
upperneck 17.9685 1.67229 3.35969
head 8.38016 0.925868 1.78504
rclavicle 2.40452e-014 -1.18774e-014
rhumerus -19.4828 12.4511 -80.9503
rradius 61.2761
rwrist 15.7058
rhand -17.4938 -26.8349
rfingers 7.12502
rthumb 8.75887 -56.6332
lclavicle 2.40452e-014 -1.18774e-014
lhumerus -46.9715 22.7124 69.0407
lradius 35.7226
lwrist -21.081
lhand -13.9229 27.5124
lfingers 7.12502
lthumb 12.2034 57.1364
rfemur -1.64609 0.91973 32.2085
rtibia 29.6783
rfoot -9.18294 -5.15133
rtoes -4.08507
lfemur -30.179 -0.804443 -6.97807
ltibia 18.533
lfoot -2.8983 10.6607
ltoes -7.04478
464
root -26.4057 17.8013 2.92718 144.258 -76.448 -136.144
lowerback -3.28595 5.95162 7.70946
upperback -1.71592 7.60978 1.92628
thorax 0.789381 3.74372 -1.93431
lowerneck -17.2412 1.28215 -2.76695
upperneck 17.9652 1.71136 3.38775
head 8.37264 0.946997 1.79903
rclavicle 2.24316e-014 1.67973e-014
rhumerus -19.364 12.8844 -81.1303
rradius 62.1521
rwrist 16.1935
rhand -17.7841 -26.6585
rfingers 7.12502
rthumb 8.47872 -56.4683
lclavicle 2.24316e-014 1.67973e-014
lhumerus -46.8195 22.2985 69.4262
lradius 36.3868
lwrist -20.577
lhand -14.0387 27.5249
lfingers 7.12502
lthumb 12.0918 57.1555
rfemur -2.01403 0.717945 31.8071
rtibia 31.0403
rfoot -8.47046 -5.26071
rtoes -4.45798
lfemur -29.9065 -0.846469 -7.43092
ltibia 18.6824
lfoot -2.79644 10.4733
ltoes -6.45577
465
root -26.5756 17.7986 2.92314 144.638 -76.6319 -136.621
lowerback -3.28389 5.96959 7.52088
upperback -1.69261 7.64331 1.84385
thorax 0.802802 3.76407 -1.91391
lowerneck -17.2116 1.3139 -2.76866
upperneck 17.9601 1.74804 3.41952
head 8.36396 0.96738 1.81388
rclavicle -7.40473e-015 1.15295e-014
rhumerus -19.2311 13.3284 -81.314
rradius 63.0131
rwrist 16.7014
rhand -18.0865 -26.479
rfingers 7.12502
rthumb 8.18684 -56.3004
lclavicle -7.40473e-015 1.15295e-014
lhumerus -46.6127 21.867 69.8535
lradius 37.0529
lwrist -20.1154
lhand -14.1571 27.5255
lfingers 7.12502
lthumb 11.9776 57.1628
rfemur -2.43037 0.503578 31.3931
rtibia 32.45
rfoot -7.70895 -5.41412
rtoes -4.75039
lfemur -29.6107 -0.880885 -7.90565
ltibia 18.8875
lfoot -2.72359 10.255
ltoes -5.86805
466
root -26.7455 17.7968 2.91915 144.999 -76.8365 -137.089
lowerback -3.2754 5.97997 7.32263
upperback -1.667 7.66768 1.75978
thorax 0.813081 3.77983 -1.89119
lowerneck -17.1832 1.34428 -2.77265
upperneck 17.9558 1.78205 3.45784
head 8.35575 0.987033 1.83101
rclavicle 3.4455e-014 -1.78409e-014
rhumerus -19.081 13.7824 -81.4992
rradius 63.8577
rwrist 17.233
rhand -18.3988 -26.2955
rfingers 7.12502
rthumb 7.88543 -56.1285
lclavicle 3.4455e-014 -1.78409e-014
lhumerus -46.35 21.4172 70.3212
lradius 37.7209
lwrist -19.6969
lhand -14.2801 27.518
lfingers 7.12502
lthumb 11.859 57.1622
rfemur -2.89711 0.276247 30.9687
rtibia 33.9011
rfoot -6.90354 -5.61262
rtoes -4.95755
lfemur -29.294 -0.910069 -8.39971
ltibia 19.1423
lfoot -2.67856 10.0076
ltoes -5.2912
467
root -26.9153 17.7959 2.91515 145.349 -77.06 -137.555
lowerback -3.26127 5.98379 7.11479
upperback -1.63924 7.68413 1.67411
thorax 0.820647 3.79162 -1.86594
lowerneck -17.1535 1.37243 -2.77506
upperneck 17.9492 1.81225 3.4978
head 8.34666 1.00517 1.8479
rclavicle 4.40153e-014 2.71341e-014
rhumerus -18.9136 14.2478 -81.6844
rradius 64.6869
rwrist 17.7824
rhand -18.7242 -26.1094
rfingers 7.12502
rthumb 7.57136 -55.9539
lclavicle 4.40153e-014 2.71341e-014
lhumerus -46.0327 20.9476 70.8275
lradius 38.3913
lwrist -19.3219
lhand -14.4103 27.5066
lfingers 7.12502
lthumb 11.7334 57.158
rfemur -3.41402 0.038729 30.5356
rtibia 35.388
rfoot -6.06513 -5.85358
rtoes -5.08592
lfemur -28.9543 -0.936152 -8.90904
ltibia 19.4351
lfoot -2.66152 9.73698
ltoes -4.72413
